<mxfile host="app.diagrams.net" modified="2023-06-18T18:34:22.711Z" agent="Mozilla/5.0 (Windows NT 10.0; Win64; x64; rv:109.0) Gecko/20100101 Firefox/114.0" etag="ns15SxkPbDq5cUqb4aIi" version="21.4.0" type="google">
  <diagram id="C5RBs43oDa-KdzZeNtuy" name="Page-1">
    <mxGraphModel grid="1" page="1" gridSize="10" guides="1" tooltips="1" connect="1" arrows="1" fold="1" pageScale="1" pageWidth="1169" pageHeight="827" math="0" shadow="0">
      <root>
        <mxCell id="WIyWlLk6GJQsqaUBKTNV-0" />
        <mxCell id="WIyWlLk6GJQsqaUBKTNV-1" parent="WIyWlLk6GJQsqaUBKTNV-0" />
        <mxCell id="MobqElanT4u2bh0McmPY-1" value="Robot" style="swimlane;fontStyle=1;align=center;verticalAlign=top;childLayout=stackLayout;horizontal=1;startSize=26;horizontalStack=0;resizeParent=1;resizeParentMax=0;resizeLast=0;collapsible=1;marginBottom=0;whiteSpace=wrap;html=1;" vertex="1" parent="WIyWlLk6GJQsqaUBKTNV-1">
          <mxGeometry x="620" y="50" width="230" height="200" as="geometry" />
        </mxCell>
        <mxCell id="MobqElanT4u2bh0McmPY-2" value="&lt;div&gt;- color : Color&lt;br&gt;&lt;/div&gt;&lt;div&gt;- position : Position&lt;br&gt;&lt;/div&gt;&lt;div&gt;- prevPosition : Position&lt;br&gt;&lt;/div&gt;" style="text;strokeColor=none;fillColor=none;align=left;verticalAlign=top;spacingLeft=4;spacingRight=4;overflow=hidden;rotatable=0;points=[[0,0.5],[1,0.5]];portConstraint=eastwest;whiteSpace=wrap;html=1;" vertex="1" parent="MobqElanT4u2bh0McmPY-1">
          <mxGeometry y="26" width="230" height="54" as="geometry" />
        </mxCell>
        <mxCell id="MobqElanT4u2bh0McmPY-3" value="" style="line;strokeWidth=1;fillColor=none;align=left;verticalAlign=middle;spacingTop=-1;spacingLeft=3;spacingRight=3;rotatable=0;labelPosition=right;points=[];portConstraint=eastwest;strokeColor=inherit;" vertex="1" parent="MobqElanT4u2bh0McmPY-1">
          <mxGeometry y="80" width="230" height="8" as="geometry" />
        </mxCell>
        <mxCell id="MobqElanT4u2bh0McmPY-4" value="&lt;div&gt;+ Robot(Color,Position)&lt;/div&gt;&lt;div&gt;+ getColor() : const Color&lt;/div&gt;&lt;div&gt;+ getPosition() : const Position&lt;/div&gt;&lt;div&gt;+ getPrevPosition() const Position&lt;br&gt;&lt;/div&gt;&lt;div&gt;+ setPosition(Position) : void&lt;/div&gt;&lt;div&gt;+ setPrevPosition(Position) : void&lt;/div&gt;&lt;div&gt;+ getCaractereColorRobot() : const string&lt;br&gt;&lt;/div&gt;" style="text;strokeColor=none;fillColor=none;align=left;verticalAlign=top;spacingLeft=4;spacingRight=4;overflow=hidden;rotatable=0;points=[[0,0.5],[1,0.5]];portConstraint=eastwest;whiteSpace=wrap;html=1;" vertex="1" parent="MobqElanT4u2bh0McmPY-1">
          <mxGeometry y="88" width="230" height="112" as="geometry" />
        </mxCell>
        <mxCell id="MobqElanT4u2bh0McmPY-10" value="Target" style="swimlane;fontStyle=1;align=center;verticalAlign=top;childLayout=stackLayout;horizontal=1;startSize=26;horizontalStack=0;resizeParent=1;resizeParentMax=0;resizeLast=0;collapsible=1;marginBottom=0;whiteSpace=wrap;html=1;" vertex="1" parent="WIyWlLk6GJQsqaUBKTNV-1">
          <mxGeometry x="635" y="270" width="200" height="190" as="geometry" />
        </mxCell>
        <mxCell id="MobqElanT4u2bh0McmPY-11" value="&lt;div&gt;- color : Color&lt;br&gt;&lt;/div&gt;&lt;div&gt;- symbol : Symbol&lt;br&gt;&lt;/div&gt;&lt;div&gt;- position : Position&lt;br&gt;&lt;/div&gt;" style="text;strokeColor=none;fillColor=none;align=left;verticalAlign=top;spacingLeft=4;spacingRight=4;overflow=hidden;rotatable=0;points=[[0,0.5],[1,0.5]];portConstraint=eastwest;whiteSpace=wrap;html=1;" vertex="1" parent="MobqElanT4u2bh0McmPY-10">
          <mxGeometry y="26" width="200" height="54" as="geometry" />
        </mxCell>
        <mxCell id="MobqElanT4u2bh0McmPY-12" value="" style="line;strokeWidth=1;fillColor=none;align=left;verticalAlign=middle;spacingTop=-1;spacingLeft=3;spacingRight=3;rotatable=0;labelPosition=right;points=[];portConstraint=eastwest;strokeColor=inherit;" vertex="1" parent="MobqElanT4u2bh0McmPY-10">
          <mxGeometry y="80" width="200" height="8" as="geometry" />
        </mxCell>
        <mxCell id="MobqElanT4u2bh0McmPY-13" value="&lt;div&gt;+ Target(Color,Symbol,Position)&lt;br&gt;&lt;/div&gt;&lt;div&gt;+ getColor() : const Color&lt;br&gt;&lt;/div&gt;&lt;div&gt;+ getSymbol() : const Symbol&lt;/div&gt;&lt;div&gt;+ getPosition() : const Position&lt;/div&gt;&lt;div&gt;+ setPosition(Position) : void&lt;/div&gt;&lt;div&gt;+ getCaracteresTarget() : string&lt;br&gt;&lt;/div&gt;" style="text;strokeColor=none;fillColor=none;align=left;verticalAlign=top;spacingLeft=4;spacingRight=4;overflow=hidden;rotatable=0;points=[[0,0.5],[1,0.5]];portConstraint=eastwest;whiteSpace=wrap;html=1;" vertex="1" parent="MobqElanT4u2bh0McmPY-10">
          <mxGeometry y="88" width="200" height="102" as="geometry" />
        </mxCell>
        <mxCell id="ry7El4SxuFe_SCfdZ8RD-0" value="Player" style="swimlane;fontStyle=1;align=center;verticalAlign=top;childLayout=stackLayout;horizontal=1;startSize=26;horizontalStack=0;resizeParent=1;resizeParentMax=0;resizeLast=0;collapsible=1;marginBottom=0;whiteSpace=wrap;html=1;" vertex="1" parent="WIyWlLk6GJQsqaUBKTNV-1">
          <mxGeometry x="80" y="470" width="170" height="150" as="geometry" />
        </mxCell>
        <mxCell id="ry7El4SxuFe_SCfdZ8RD-1" value="&lt;div&gt;- name : string&lt;br&gt;&lt;/div&gt;&lt;div&gt;- score : unsigned char&lt;/div&gt;" style="text;strokeColor=none;fillColor=none;align=left;verticalAlign=top;spacingLeft=4;spacingRight=4;overflow=hidden;rotatable=0;points=[[0,0.5],[1,0.5]];portConstraint=eastwest;whiteSpace=wrap;html=1;" vertex="1" parent="ry7El4SxuFe_SCfdZ8RD-0">
          <mxGeometry y="26" width="170" height="44" as="geometry" />
        </mxCell>
        <mxCell id="ry7El4SxuFe_SCfdZ8RD-2" value="" style="line;strokeWidth=1;fillColor=none;align=left;verticalAlign=middle;spacingTop=-1;spacingLeft=3;spacingRight=3;rotatable=0;labelPosition=right;points=[];portConstraint=eastwest;strokeColor=inherit;" vertex="1" parent="ry7El4SxuFe_SCfdZ8RD-0">
          <mxGeometry y="70" width="170" height="8" as="geometry" />
        </mxCell>
        <mxCell id="ry7El4SxuFe_SCfdZ8RD-3" value="&lt;div&gt;+ Player(string)&lt;br&gt;&lt;/div&gt;&lt;div&gt;+ addPoint() : void&lt;/div&gt;&lt;div&gt;+ getName() : string&lt;br&gt;&lt;/div&gt;&lt;div&gt;+ getScore() : unsigned char&lt;/div&gt;" style="text;strokeColor=none;fillColor=none;align=left;verticalAlign=top;spacingLeft=4;spacingRight=4;overflow=hidden;rotatable=0;points=[[0,0.5],[1,0.5]];portConstraint=eastwest;whiteSpace=wrap;html=1;" vertex="1" parent="ry7El4SxuFe_SCfdZ8RD-0">
          <mxGeometry y="78" width="170" height="72" as="geometry" />
        </mxCell>
        <mxCell id="ZWldEJ41fTnFAPUbfyZl-0" value="Case" style="swimlane;fontStyle=1;align=center;verticalAlign=top;childLayout=stackLayout;horizontal=1;startSize=26;horizontalStack=0;resizeParent=1;resizeParentMax=0;resizeLast=0;collapsible=1;marginBottom=0;whiteSpace=wrap;html=1;" vertex="1" parent="WIyWlLk6GJQsqaUBKTNV-1">
          <mxGeometry x="380" y="40" width="200" height="380" as="geometry" />
        </mxCell>
        <mxCell id="ZWldEJ41fTnFAPUbfyZl-1" value="&lt;div&gt;- murH : bool&lt;/div&gt;&lt;div&gt;- murD : bool&lt;/div&gt;&lt;div&gt;- murB : bool&lt;/div&gt;&lt;div&gt;- murG : bool&lt;/div&gt;&lt;div&gt;- angle : Angle&lt;br&gt;&lt;/div&gt;&lt;div&gt;- robot : Robot*&lt;br&gt;&lt;/div&gt;&lt;div&gt;- target : Target*&lt;br&gt;&lt;/div&gt;" style="text;strokeColor=none;fillColor=none;align=left;verticalAlign=top;spacingLeft=4;spacingRight=4;overflow=hidden;rotatable=0;points=[[0,0.5],[1,0.5]];portConstraint=eastwest;whiteSpace=wrap;html=1;" vertex="1" parent="ZWldEJ41fTnFAPUbfyZl-0">
          <mxGeometry y="26" width="200" height="114" as="geometry" />
        </mxCell>
        <mxCell id="ZWldEJ41fTnFAPUbfyZl-2" value="" style="line;strokeWidth=1;fillColor=none;align=left;verticalAlign=middle;spacingTop=-1;spacingLeft=3;spacingRight=3;rotatable=0;labelPosition=right;points=[];portConstraint=eastwest;strokeColor=inherit;" vertex="1" parent="ZWldEJ41fTnFAPUbfyZl-0">
          <mxGeometry y="140" width="200" height="8" as="geometry" />
        </mxCell>
        <mxCell id="ZWldEJ41fTnFAPUbfyZl-3" value="&lt;div&gt;+ Case()&lt;br&gt;&lt;/div&gt;&lt;div&gt;+ getMurH() : const bool&lt;/div&gt;&lt;div&gt;+ getMurD() : const bool&lt;/div&gt;&lt;div&gt;+ getMurB() : const bool&lt;/div&gt;&lt;div&gt;+ getMurG() : const bool&lt;br&gt;&lt;/div&gt;&lt;div&gt;+ getAngle() : const Angle&lt;/div&gt;&lt;div&gt;+ getRobot() : const Robot*&lt;/div&gt;&lt;div&gt;+ getTarget() : const Target*&lt;/div&gt;&lt;div&gt;+ setMurH(bool) : void&lt;/div&gt;&lt;div&gt;+ setMurD(bool) : void&lt;/div&gt;&lt;div&gt;+ setMurB(bool) : void&lt;/div&gt;&lt;div&gt;+ setMurG(bool) : void&lt;/div&gt;&lt;div&gt;+ setAngle() : void&lt;/div&gt;&lt;div&gt;+ setRobot(Robot*) : void&lt;/div&gt;&lt;div&gt;+ setTarget(Target*) : void&lt;br&gt;&lt;/div&gt;" style="text;strokeColor=none;fillColor=none;align=left;verticalAlign=top;spacingLeft=4;spacingRight=4;overflow=hidden;rotatable=0;points=[[0,0.5],[1,0.5]];portConstraint=eastwest;whiteSpace=wrap;html=1;" vertex="1" parent="ZWldEJ41fTnFAPUbfyZl-0">
          <mxGeometry y="148" width="200" height="232" as="geometry" />
        </mxCell>
        <mxCell id="ZWldEJ41fTnFAPUbfyZl-4" value="Position" style="swimlane;fontStyle=1;align=center;verticalAlign=top;childLayout=stackLayout;horizontal=1;startSize=26;horizontalStack=0;resizeParent=1;resizeParentMax=0;resizeLast=0;collapsible=1;marginBottom=0;whiteSpace=wrap;html=1;" vertex="1" parent="WIyWlLk6GJQsqaUBKTNV-1">
          <mxGeometry x="910" y="150" width="200" height="160" as="geometry" />
        </mxCell>
        <mxCell id="ZWldEJ41fTnFAPUbfyZl-5" value="&lt;div&gt;- x : int&lt;br&gt;&lt;/div&gt;&lt;div&gt;- y : int&lt;br&gt;&lt;/div&gt;" style="text;strokeColor=none;fillColor=none;align=left;verticalAlign=top;spacingLeft=4;spacingRight=4;overflow=hidden;rotatable=0;points=[[0,0.5],[1,0.5]];portConstraint=eastwest;whiteSpace=wrap;html=1;" vertex="1" parent="ZWldEJ41fTnFAPUbfyZl-4">
          <mxGeometry y="26" width="200" height="44" as="geometry" />
        </mxCell>
        <mxCell id="ZWldEJ41fTnFAPUbfyZl-6" value="" style="line;strokeWidth=1;fillColor=none;align=left;verticalAlign=middle;spacingTop=-1;spacingLeft=3;spacingRight=3;rotatable=0;labelPosition=right;points=[];portConstraint=eastwest;strokeColor=inherit;" vertex="1" parent="ZWldEJ41fTnFAPUbfyZl-4">
          <mxGeometry y="70" width="200" height="8" as="geometry" />
        </mxCell>
        <mxCell id="ZWldEJ41fTnFAPUbfyZl-7" value="&lt;div&gt;+ Position(int,int)&lt;br&gt;&lt;/div&gt;&lt;div&gt;+ getX() : const int&lt;br&gt;&lt;/div&gt;&lt;div&gt;+ getY() : const int&lt;/div&gt;&lt;div&gt;+ setX(int) : void&lt;/div&gt;&lt;div&gt;+ setY(int) : void&lt;br&gt;&lt;/div&gt;" style="text;strokeColor=none;fillColor=none;align=left;verticalAlign=top;spacingLeft=4;spacingRight=4;overflow=hidden;rotatable=0;points=[[0,0.5],[1,0.5]];portConstraint=eastwest;whiteSpace=wrap;html=1;" vertex="1" parent="ZWldEJ41fTnFAPUbfyZl-4">
          <mxGeometry y="78" width="200" height="82" as="geometry" />
        </mxCell>
        <mxCell id="ZWldEJ41fTnFAPUbfyZl-8" value="Game" style="swimlane;fontStyle=1;align=center;verticalAlign=top;childLayout=stackLayout;horizontal=1;startSize=26;horizontalStack=0;resizeParent=1;resizeParentMax=0;resizeLast=0;collapsible=1;marginBottom=0;whiteSpace=wrap;html=1;" vertex="1" parent="WIyWlLk6GJQsqaUBKTNV-1">
          <mxGeometry x="10" y="24" width="310" height="380" as="geometry" />
        </mxCell>
        <mxCell id="ZWldEJ41fTnFAPUbfyZl-9" value="&lt;div&gt;- robots : vector&amp;lt;Robot*&amp;gt;&lt;br&gt;&lt;/div&gt;&lt;div&gt;- targets : vector&amp;lt;Target&amp;gt;&lt;br&gt;&lt;/div&gt;&lt;div&gt;- joueurs : vector&amp;lt;Player*&amp;gt;&lt;br&gt;&lt;/div&gt;&lt;div&gt;- plateau : array&amp;lt;array&amp;lt;Case,16&amp;gt;,16&amp;gt;&lt;/div&gt;" style="text;strokeColor=none;fillColor=none;align=left;verticalAlign=top;spacingLeft=4;spacingRight=4;overflow=hidden;rotatable=0;points=[[0,0.5],[1,0.5]];portConstraint=eastwest;whiteSpace=wrap;html=1;" vertex="1" parent="ZWldEJ41fTnFAPUbfyZl-8">
          <mxGeometry y="26" width="310" height="74" as="geometry" />
        </mxCell>
        <mxCell id="ZWldEJ41fTnFAPUbfyZl-10" value="" style="line;strokeWidth=1;fillColor=none;align=left;verticalAlign=middle;spacingTop=-1;spacingLeft=3;spacingRight=3;rotatable=0;labelPosition=right;points=[];portConstraint=eastwest;strokeColor=inherit;" vertex="1" parent="ZWldEJ41fTnFAPUbfyZl-8">
          <mxGeometry y="100" width="310" height="8" as="geometry" />
        </mxCell>
        <mxCell id="ZWldEJ41fTnFAPUbfyZl-11" value="&lt;div&gt;+ Game()&lt;br&gt;&lt;/div&gt;&lt;div&gt;+ iniGame() : void&lt;br&gt;&lt;/div&gt;&lt;div&gt;+ playTurn(Target*) : bool&lt;/div&gt;&lt;div&gt;+ getTargetVector() : vector&amp;lt;Target*&amp;gt;&lt;/div&gt;&lt;div&gt;+ getPlayerVector() : vector&amp;lt;Player*&amp;gt;&lt;br&gt;&lt;/div&gt;&lt;div&gt;- moveRobot(Robot*, Direction) : void&lt;/div&gt;&lt;div&gt;- isTargetReached(const Target*) : const bool&lt;/div&gt;&lt;div&gt;- createRobot(Color) : Robot*&lt;br&gt;&lt;/div&gt;&lt;div&gt;- findPosition(string) : Direction&lt;/div&gt;&lt;div&gt;- findRobot(string) : Robot*&lt;/div&gt;&lt;div&gt;- genererTargets() : void&lt;/div&gt;&lt;div&gt;- affichage_case(Target*,int,int) : void&lt;/div&gt;&lt;div&gt;- mur_exterieur_horizontale(int) : Position&lt;/div&gt;&lt;div&gt;- mur_exterieur_vertical(int) : Position&lt;/div&gt;&lt;div&gt;- afficher_plateau(Target*) : void&lt;/div&gt;&lt;div&gt;- plateauInit() : void&lt;/div&gt;&lt;div&gt;- murInterieur(int) : void&lt;/div&gt;&lt;div&gt;- generer17emeTarget() : void&lt;br&gt;&lt;/div&gt;" style="text;strokeColor=none;fillColor=none;align=left;verticalAlign=top;spacingLeft=4;spacingRight=4;overflow=hidden;rotatable=0;points=[[0,0.5],[1,0.5]];portConstraint=eastwest;whiteSpace=wrap;html=1;" vertex="1" parent="ZWldEJ41fTnFAPUbfyZl-8">
          <mxGeometry y="108" width="310" height="272" as="geometry" />
        </mxCell>
        <mxCell id="ZWldEJ41fTnFAPUbfyZl-12" value="1" style="endArrow=open;html=1;endSize=12;startArrow=diamondThin;startSize=14;startFill=1;edgeStyle=orthogonalEdgeStyle;align=left;verticalAlign=bottom;rounded=0;entryX=0.5;entryY=0;entryDx=0;entryDy=0;" edge="1" parent="WIyWlLk6GJQsqaUBKTNV-1" source="ZWldEJ41fTnFAPUbfyZl-8" target="MobqElanT4u2bh0McmPY-1">
          <mxGeometry x="-1" y="3" relative="1" as="geometry">
            <mxPoint x="520" y="310" as="sourcePoint" />
            <mxPoint x="680" y="310" as="targetPoint" />
            <Array as="points">
              <mxPoint x="735" y="30" />
            </Array>
          </mxGeometry>
        </mxCell>
        <mxCell id="ZWldEJ41fTnFAPUbfyZl-14" value="4" style="text;html=1;strokeColor=none;fillColor=none;align=center;verticalAlign=middle;whiteSpace=wrap;rounded=0;" vertex="1" parent="WIyWlLk6GJQsqaUBKTNV-1">
          <mxGeometry x="740" y="20" width="60" height="30" as="geometry" />
        </mxCell>
        <mxCell id="ZWldEJ41fTnFAPUbfyZl-15" value="1" style="endArrow=open;html=1;endSize=12;startArrow=diamondThin;startSize=14;startFill=1;edgeStyle=orthogonalEdgeStyle;align=left;verticalAlign=bottom;rounded=0;" edge="1" parent="WIyWlLk6GJQsqaUBKTNV-1" source="ZWldEJ41fTnFAPUbfyZl-8" target="MobqElanT4u2bh0McmPY-10">
          <mxGeometry x="-1" y="3" relative="1" as="geometry">
            <mxPoint x="520" y="250" as="sourcePoint" />
            <mxPoint x="600" y="440" as="targetPoint" />
            <Array as="points">
              <mxPoint x="280" y="440" />
              <mxPoint x="735" y="440" />
            </Array>
          </mxGeometry>
        </mxCell>
        <mxCell id="ZWldEJ41fTnFAPUbfyZl-20" value="17" style="text;html=1;strokeColor=none;fillColor=none;align=center;verticalAlign=middle;whiteSpace=wrap;rounded=0;" vertex="1" parent="WIyWlLk6GJQsqaUBKTNV-1">
          <mxGeometry x="570" y="440" width="60" height="30" as="geometry" />
        </mxCell>
        <mxCell id="ZWldEJ41fTnFAPUbfyZl-21" value="1" style="endArrow=open;html=1;endSize=12;startArrow=diamondThin;startSize=14;startFill=1;edgeStyle=orthogonalEdgeStyle;align=left;verticalAlign=bottom;rounded=0;" edge="1" parent="WIyWlLk6GJQsqaUBKTNV-1" source="ZWldEJ41fTnFAPUbfyZl-8" target="ry7El4SxuFe_SCfdZ8RD-0">
          <mxGeometry x="-1" y="3" relative="1" as="geometry">
            <mxPoint x="520" y="250" as="sourcePoint" />
            <mxPoint x="680" y="250" as="targetPoint" />
          </mxGeometry>
        </mxCell>
        <mxCell id="ZWldEJ41fTnFAPUbfyZl-22" value="1..99" style="text;html=1;strokeColor=none;fillColor=none;align=center;verticalAlign=middle;whiteSpace=wrap;rounded=0;" vertex="1" parent="WIyWlLk6GJQsqaUBKTNV-1">
          <mxGeometry x="160" y="440" width="60" height="30" as="geometry" />
        </mxCell>
        <mxCell id="ZWldEJ41fTnFAPUbfyZl-23" value="1" style="endArrow=open;html=1;endSize=12;startArrow=diamondThin;startSize=14;startFill=1;edgeStyle=orthogonalEdgeStyle;align=left;verticalAlign=bottom;rounded=0;entryX=-0.002;entryY=-0.001;entryDx=0;entryDy=0;entryPerimeter=0;" edge="1" parent="WIyWlLk6GJQsqaUBKTNV-1" source="ZWldEJ41fTnFAPUbfyZl-8" target="ZWldEJ41fTnFAPUbfyZl-3">
          <mxGeometry x="-1" y="3" relative="1" as="geometry">
            <mxPoint x="520" y="250" as="sourcePoint" />
            <mxPoint x="680" y="250" as="targetPoint" />
            <Array as="points">
              <mxPoint x="340" y="188" />
              <mxPoint x="340" y="188" />
            </Array>
          </mxGeometry>
        </mxCell>
        <mxCell id="ZWldEJ41fTnFAPUbfyZl-26" value="256" style="text;html=1;strokeColor=none;fillColor=none;align=center;verticalAlign=middle;whiteSpace=wrap;rounded=0;" vertex="1" parent="WIyWlLk6GJQsqaUBKTNV-1">
          <mxGeometry x="340" y="160" width="60" height="30" as="geometry" />
        </mxCell>
        <mxCell id="ZWldEJ41fTnFAPUbfyZl-27" value="" style="endArrow=block;endFill=1;html=1;edgeStyle=orthogonalEdgeStyle;align=left;verticalAlign=top;rounded=0;exitX=1;exitY=0.5;exitDx=0;exitDy=0;entryX=0;entryY=0.5;entryDx=0;entryDy=0;" edge="1" parent="WIyWlLk6GJQsqaUBKTNV-1" source="ZWldEJ41fTnFAPUbfyZl-3" target="MobqElanT4u2bh0McmPY-11">
          <mxGeometry x="-1" relative="1" as="geometry">
            <mxPoint x="340" y="490" as="sourcePoint" />
            <mxPoint x="500" y="490" as="targetPoint" />
          </mxGeometry>
        </mxCell>
        <mxCell id="ZWldEJ41fTnFAPUbfyZl-28" value="1" style="edgeLabel;resizable=0;html=1;align=left;verticalAlign=bottom;" connectable="0" vertex="1" parent="ZWldEJ41fTnFAPUbfyZl-27">
          <mxGeometry x="-1" relative="1" as="geometry" />
        </mxCell>
        <mxCell id="ZWldEJ41fTnFAPUbfyZl-29" value="0..1" style="text;html=1;strokeColor=none;fillColor=none;align=center;verticalAlign=middle;whiteSpace=wrap;rounded=0;" vertex="1" parent="WIyWlLk6GJQsqaUBKTNV-1">
          <mxGeometry x="590" y="290" width="60" height="30" as="geometry" />
        </mxCell>
        <mxCell id="ZWldEJ41fTnFAPUbfyZl-30" value="" style="endArrow=block;endFill=1;html=1;edgeStyle=orthogonalEdgeStyle;align=left;verticalAlign=top;rounded=0;exitX=1;exitY=0.5;exitDx=0;exitDy=0;entryX=0;entryY=0.5;entryDx=0;entryDy=0;" edge="1" parent="WIyWlLk6GJQsqaUBKTNV-1" source="ZWldEJ41fTnFAPUbfyZl-1" target="MobqElanT4u2bh0McmPY-2">
          <mxGeometry x="-1" relative="1" as="geometry">
            <mxPoint x="520" y="250" as="sourcePoint" />
            <mxPoint x="680" y="250" as="targetPoint" />
          </mxGeometry>
        </mxCell>
        <mxCell id="ZWldEJ41fTnFAPUbfyZl-31" value="1" style="edgeLabel;resizable=0;html=1;align=left;verticalAlign=bottom;" connectable="0" vertex="1" parent="ZWldEJ41fTnFAPUbfyZl-30">
          <mxGeometry x="-1" relative="1" as="geometry" />
        </mxCell>
        <mxCell id="ZWldEJ41fTnFAPUbfyZl-32" value="0..1" style="text;html=1;strokeColor=none;fillColor=none;align=center;verticalAlign=middle;whiteSpace=wrap;rounded=0;" vertex="1" parent="WIyWlLk6GJQsqaUBKTNV-1">
          <mxGeometry x="580" y="76" width="60" height="30" as="geometry" />
        </mxCell>
        <mxCell id="ZWldEJ41fTnFAPUbfyZl-33" value="" style="endArrow=block;endFill=1;html=1;edgeStyle=orthogonalEdgeStyle;align=left;verticalAlign=top;rounded=0;exitX=1;exitY=0.5;exitDx=0;exitDy=0;entryX=0;entryY=0.5;entryDx=0;entryDy=0;" edge="1" parent="WIyWlLk6GJQsqaUBKTNV-1" source="MobqElanT4u2bh0McmPY-11" target="ZWldEJ41fTnFAPUbfyZl-7">
          <mxGeometry x="-1" relative="1" as="geometry">
            <mxPoint x="970" y="360" as="sourcePoint" />
            <mxPoint x="1130" y="360" as="targetPoint" />
          </mxGeometry>
        </mxCell>
        <mxCell id="ZWldEJ41fTnFAPUbfyZl-34" value="1" style="edgeLabel;resizable=0;html=1;align=left;verticalAlign=bottom;" connectable="0" vertex="1" parent="ZWldEJ41fTnFAPUbfyZl-33">
          <mxGeometry x="-1" relative="1" as="geometry" />
        </mxCell>
        <mxCell id="ZWldEJ41fTnFAPUbfyZl-35" value="" style="endArrow=block;endFill=1;html=1;edgeStyle=orthogonalEdgeStyle;align=left;verticalAlign=top;rounded=0;exitX=1;exitY=0.5;exitDx=0;exitDy=0;entryX=0;entryY=0.5;entryDx=0;entryDy=0;" edge="1" parent="WIyWlLk6GJQsqaUBKTNV-1" source="MobqElanT4u2bh0McmPY-2" target="ZWldEJ41fTnFAPUbfyZl-5">
          <mxGeometry x="-1" relative="1" as="geometry">
            <mxPoint x="920" y="60" as="sourcePoint" />
            <mxPoint x="1080" y="60" as="targetPoint" />
          </mxGeometry>
        </mxCell>
        <mxCell id="ZWldEJ41fTnFAPUbfyZl-36" value="1" style="edgeLabel;resizable=0;html=1;align=left;verticalAlign=bottom;" connectable="0" vertex="1" parent="ZWldEJ41fTnFAPUbfyZl-35">
          <mxGeometry x="-1" relative="1" as="geometry" />
        </mxCell>
        <mxCell id="ZWldEJ41fTnFAPUbfyZl-37" value="2" style="text;html=1;strokeColor=none;fillColor=none;align=center;verticalAlign=middle;whiteSpace=wrap;rounded=0;" vertex="1" parent="WIyWlLk6GJQsqaUBKTNV-1">
          <mxGeometry x="870" y="169" width="60" height="30" as="geometry" />
        </mxCell>
        <mxCell id="ZWldEJ41fTnFAPUbfyZl-38" value="1" style="text;html=1;strokeColor=none;fillColor=none;align=center;verticalAlign=middle;whiteSpace=wrap;rounded=0;" vertex="1" parent="WIyWlLk6GJQsqaUBKTNV-1">
          <mxGeometry x="870" y="240" width="60" height="30" as="geometry" />
        </mxCell>
      </root>
    </mxGraphModel>
  </diagram>
</mxfile>
